<svg xmlns="http://www.w3.org/2000/svg" xmlns:xlink="http://www.w3.org/1999/xlink" width="1920" zoomAndPan="magnify" viewBox="0 0 1440 809.999993" height="1080" preserveAspectRatio="xMidYMid meet" version="1.0"><path fill="#8c0505" d="M 844.453125 650.898438 C 841.558594 650.898438 839.140625 650.898438 836.246094 650.417969 C 822.242188 648.96875 791.339844 643.65625 747.882812 628.207031 C 743.539062 626.757812 741.605469 622.410156 743.054688 618.066406 C 744.503906 613.71875 749.332031 611.789062 753.195312 613.238281 C 795.203125 628.207031 824.65625 633.035156 838.175781 634.484375 C 857.972656 636.898438 870.527344 627.722656 871.976562 617.582031 C 873.90625 606.960938 865.214844 594.40625 841.074219 588.613281 C 748.367188 566.882812 711.1875 534.53125 699.597656 521.496094 C 688.492188 525.359375 677.386719 521.496094 668.695312 515.699219 C 663.382812 534.53125 649.382812 550.464844 626.6875 563.503906 C 588.542969 585.714844 572.125 572.675781 566.8125 565.917969 C 553.292969 549.015625 561.5 516.667969 587.09375 489.144531 C 680.285156 386.777344 819.828125 378.085938 941.507812 467.414062 C 944.886719 469.828125 945.851562 475.140625 943.4375 478.519531 C 940.542969 482.382812 935.714844 482.867188 931.851562 480.453125 C 840.589844 413.335938 705.390625 383.398438 598.679688 500.25 C 577.4375 523.425781 572.125 547.085938 579.367188 555.777344 C 585.160156 563.019531 600.128906 560.605469 618.960938 549.984375 C 642.621094 535.980469 654.210938 520.046875 654.691406 499.765625 C 655.175781 496.386719 657.105469 493.488281 660.488281 492.523438 C 663.382812 491.074219 666.765625 492.039062 669.179688 494.9375 C 669.179688 494.9375 685.113281 513.285156 696.699219 504.59375 C 698.632812 503.628906 701.046875 503.144531 702.976562 503.628906 C 705.390625 503.628906 707.324219 505.078125 708.289062 507.007812 C 708.773438 507.492188 736.292969 547.570312 844.9375 573.160156 C 878.738281 580.886719 890.808594 602.613281 887.910156 620.480469 C 885.011719 636.414062 869.5625 650.898438 844.453125 650.898438 Z M 844.453125 650.898438 " fill-opacity="1" fill-rule="evenodd"/><path fill="#8c0505" d="M 815.964844 699.667969 C 811.136719 699.667969 806.308594 698.703125 800.996094 697.253906 L 723.742188 674.078125 C 719.394531 673.109375 716.980469 668.28125 718.429688 663.9375 C 719.394531 660.074219 724.222656 657.660156 728.085938 658.625 L 805.824219 681.800781 C 816.449219 685.183594 825.621094 683.25 831.898438 677.457031 C 840.109375 670.214844 843.003906 657.660156 840.109375 644.621094 C 839.140625 640.277344 842.039062 635.929688 846.386719 634.964844 C 850.730469 634 855.078125 636.898438 856.042969 641.242188 C 859.90625 659.589844 855.078125 677.9375 843.003906 689.046875 C 835.761719 695.804688 826.105469 699.667969 815.964844 699.667969 Z M 815.964844 699.667969 " fill-opacity="1" fill-rule="evenodd"/><path fill="#8c0505" d="M 780.71875 734.917969 C 775.40625 734.917969 770.09375 733.949219 763.816406 732.019531 L 697.667969 711.738281 C 693.320312 710.289062 690.90625 705.945312 692.355469 701.597656 C 693.320312 697.253906 698.148438 694.839844 702.011719 696.289062 L 768.644531 717.050781 C 778.304688 719.949219 786.027344 719.464844 791.339844 716.085938 C 799.066406 711.257812 801.960938 699.183594 802.929688 690.011719 C 803.410156 685.664062 807.757812 682.769531 812.101562 683.25 C 816.449219 683.734375 819.34375 687.597656 818.863281 691.941406 C 816.929688 710.289062 810.652344 722.84375 800.03125 729.605469 C 794.71875 733.46875 788.441406 734.917969 780.71875 734.917969 Z M 780.71875 734.917969 " fill-opacity="1" fill-rule="evenodd"/><path fill="#8c0505" d="M 727.121094 757.128906 C 701.046875 757.128906 667.730469 747.953125 638.757812 738.296875 L 636.828125 737.8125 C 585.644531 721.394531 515.628906 694.355469 474.105469 659.589844 C 470.726562 656.695312 470.242188 651.863281 473.140625 648.484375 C 476.035156 645.105469 480.863281 644.621094 484.246094 647.519531 C 526.253906 682.285156 601.09375 709.324219 641.65625 722.363281 L 643.585938 723.328125 C 664.832031 730.085938 729.050781 750.851562 749.816406 735.882812 C 752.230469 734.433594 755.609375 731.054688 755.609375 723.808594 C 755.609375 718.980469 758.988281 715.601562 763.816406 715.601562 C 768.164062 715.601562 771.542969 719.464844 771.542969 723.808594 C 771.542969 734.433594 767.199219 743.125 758.988281 748.917969 C 751.261719 754.714844 740.15625 757.128906 727.121094 757.128906 Z M 727.121094 757.128906 " fill-opacity="1" fill-rule="evenodd"/><path fill="#8c0505" d="M 512.25 537.910156 C 510.800781 537.910156 509.351562 537.910156 508.386719 536.945312 C 504.523438 534.53125 503.078125 529.703125 505.492188 525.839844 C 558.121094 433.617188 626.6875 427.339844 663.382812 431.683594 C 667.730469 432.167969 670.625 436.03125 670.144531 440.859375 C 669.660156 445.203125 665.796875 448.101562 661.453125 447.617188 C 629.101562 443.753906 567.296875 449.550781 519.492188 534.050781 C 517.5625 536.464844 515.148438 537.910156 512.25 537.910156 Z M 512.25 537.910156 " fill-opacity="1" fill-rule="evenodd"/><path fill="#8c0505" d="M 478.933594 661.523438 C 478.449219 661.523438 477.96875 661.523438 477.003906 661.523438 L 423.886719 647.035156 C 420.027344 646.070312 417.128906 641.726562 418.578125 637.378906 C 419.542969 633.035156 423.886719 630.621094 428.234375 631.585938 L 473.621094 643.65625 L 502.59375 535.496094 L 469.757812 526.804688 C 465.414062 525.839844 463 521.496094 463.964844 517.148438 C 464.929688 512.804688 469.277344 510.390625 473.621094 511.355469 L 514.183594 521.976562 C 518.527344 523.425781 520.941406 527.773438 519.976562 532.117188 L 487.140625 655.726562 C 486.175781 659.109375 482.796875 661.523438 478.933594 661.523438 Z M 478.933594 661.523438 " fill-opacity="1" fill-rule="evenodd"/><path fill="#8c0505" d="M 956.476562 619.515625 C 955.992188 619.515625 955.027344 619.515625 954.542969 619.515625 L 901.429688 605.027344 C 899.5 604.546875 897.566406 603.097656 896.601562 601.648438 C 895.636719 599.71875 895.152344 597.304688 896.121094 595.371094 L 928.953125 471.761719 C 929.4375 469.828125 930.882812 467.898438 932.816406 466.933594 C 934.746094 465.964844 936.679688 465.484375 939.09375 465.964844 L 979.652344 477.070312 C 983.515625 478.039062 986.414062 482.382812 984.964844 486.730469 C 984 491.074219 979.652344 493.488281 975.308594 492.523438 L 942.472656 483.832031 L 913.5 591.507812 L 958.890625 603.578125 C 963.234375 605.027344 965.648438 609.375 964.203125 613.71875 C 963.234375 617.101562 960.339844 619.515625 956.476562 619.515625 Z M 956.476562 619.515625 " fill-opacity="1" fill-rule="evenodd"/><path fill="#8c0505" d="M 905.292969 605.992188 C 904.8125 605.992188 903.84375 605.992188 903.363281 605.511719 L 851.695312 591.992188 C 847.351562 590.542969 844.453125 586.195312 845.902344 581.851562 C 846.867188 577.503906 851.214844 575.089844 855.558594 576.058594 L 907.226562 590.058594 C 911.570312 591.027344 914.46875 595.855469 913.019531 599.71875 C 912.054688 603.578125 908.671875 605.992188 905.292969 605.992188 Z M 905.292969 605.992188 " fill-opacity="1" fill-rule="evenodd"/><path fill="#8c0505" d="M 1063.667969 688.5625 C 1062.703125 688.5625 1061.738281 688.5625 1060.773438 688.078125 L 949.234375 648.003906 C 945.371094 647.035156 943.4375 643.175781 943.921875 639.3125 L 974.339844 454.378906 C 974.339844 451.964844 975.789062 450.03125 977.722656 448.582031 C 980.136719 447.617188 982.550781 447.136719 984.480469 448.101562 L 1114.367188 493.007812 C 1118.714844 494.453125 1120.644531 498.316406 1119.679688 502.664062 L 1071.394531 682.769531 C 1070.914062 684.699219 1069.464844 686.628906 1067.53125 687.597656 C 1066.082031 688.078125 1065.117188 688.5625 1063.667969 688.5625 Z M 960.820312 635.449219 L 1058.359375 670.214844 L 1102.296875 505.5625 L 988.34375 466.449219 Z M 960.820312 635.449219 " fill-opacity="1" fill-rule="evenodd"/><path fill="#8c0505" d="M 415.679688 675.042969 C 414.714844 675.042969 413.75 674.558594 413.265625 674.558594 L 301.242188 634.484375 C 297.378906 633.035156 294.964844 628.6875 296.414062 624.824219 L 344.699219 444.722656 C 345.183594 442.789062 346.632812 440.859375 348.5625 439.890625 C 350.496094 438.445312 352.910156 438.445312 354.839844 439.410156 L 484.726562 483.832031 C 486.660156 484.796875 488.589844 486.246094 489.554688 488.179688 C 490.523438 490.109375 490.523438 492.523438 489.554688 494.453125 L 423.40625 669.730469 C 421.957031 673.109375 419.058594 675.042969 415.679688 675.042969 Z M 313.796875 621.929688 L 410.851562 656.695312 L 471.691406 496.386719 L 357.738281 457.273438 Z M 313.796875 621.929688 " fill-opacity="1" fill-rule="evenodd"/><path fill="#8c0505" d="M 707.804688 387.746094 C 611.234375 387.746094 532.53125 309.039062 532.53125 212.46875 C 532.53125 115.898438 611.234375 37.191406 707.804688 37.191406 C 804.378906 37.191406 883.082031 115.898438 883.082031 212.46875 C 883.082031 309.039062 804.378906 387.746094 707.804688 387.746094 Z M 707.804688 53.125 C 620.410156 53.125 548.949219 124.589844 548.949219 212.46875 C 548.949219 300.347656 620.410156 371.328125 707.804688 371.328125 C 795.6875 371.328125 867.148438 300.347656 867.148438 212.46875 C 867.148438 124.589844 795.6875 53.125 707.804688 53.125 Z M 707.804688 53.125 " fill-opacity="1" fill-rule="evenodd"/><path fill="#8c0505" d="M 766.714844 198.464844 C 765.265625 198.464844 763.816406 198.464844 762.367188 197.5 L 730.5 185.910156 C 725.671875 183.980469 722.773438 180.117188 722.292969 175.289062 C 721.808594 170.941406 723.742188 166.597656 727.121094 164.183594 L 690.90625 101.894531 C 687.527344 95.617188 689.941406 87.890625 695.734375 84.511719 L 714.566406 73.890625 C 720.359375 70.507812 728.085938 72.441406 731.464844 78.234375 L 767.679688 141.007812 C 771.542969 139.074219 775.886719 139.558594 779.75 141.972656 C 783.613281 144.867188 785.546875 149.699219 784.578125 154.527344 L 779.269531 188.324219 C 778.304688 191.707031 776.371094 195.085938 772.992188 197.015625 C 771.058594 197.984375 769.128906 198.464844 766.714844 198.464844 Z M 743.054688 173.355469 L 763.816406 181.082031 L 767.679688 159.355469 C 763.816406 160.804688 759.472656 159.355469 757.539062 155.972656 L 719.394531 89.339844 L 706.839844 96.582031 L 744.984375 163.21875 C 746.917969 166.597656 746.433594 170.941406 743.054688 173.355469 Z M 743.054688 173.355469 " fill-opacity="1" fill-rule="evenodd"/><path fill="#8c0505" d="M 693.320312 170.460938 L 658.074219 170.460938 C 655.175781 170.460938 652.277344 169.011719 650.828125 166.597656 C 649.863281 164.183594 649.863281 161.285156 650.828125 158.390625 L 690.90625 89.339844 C 693.320312 85.476562 698.148438 84.03125 702.011719 86.445312 C 705.875 88.375 707.324219 93.203125 704.910156 97.066406 L 672.074219 154.527344 L 688.976562 154.527344 L 707.324219 122.175781 C 709.738281 118.3125 714.566406 116.863281 718.429688 119.277344 C 722.292969 121.210938 723.742188 126.039062 721.328125 129.902344 L 700.5625 166.597656 C 699.113281 169.011719 696.21875 170.460938 693.320312 170.460938 Z M 693.320312 170.460938 " fill-opacity="1" fill-rule="evenodd"/><path fill="#8c0505" d="M 737.742188 316.765625 C 734.847656 316.765625 731.949219 315.316406 730.015625 313.867188 L 703.460938 291.65625 C 700.5625 289.242188 699.113281 285.863281 699.113281 282.480469 C 699.113281 278.621094 700.5625 275.238281 703.460938 272.824219 L 730.015625 250.613281 C 733.398438 247.714844 738.707031 247.234375 743.054688 249.164062 C 746.917969 251.097656 749.816406 254.476562 750.296875 258.824219 L 822.242188 258.824219 C 829.003906 258.824219 834.796875 264.617188 834.796875 271.375 L 834.796875 293.105469 C 834.796875 299.863281 829.003906 305.660156 822.242188 305.660156 L 750.296875 305.660156 C 749.816406 310.003906 746.917969 313.386719 743.054688 315.316406 C 741.605469 316.28125 739.675781 316.765625 737.742188 316.765625 Z M 716.980469 282.480469 L 734.363281 296.484375 C 734.847656 292.621094 738.226562 289.726562 742.089844 289.726562 L 818.863281 289.726562 L 818.863281 274.757812 L 742.089844 274.757812 C 738.226562 274.757812 734.847656 271.859375 734.363281 267.996094 Z M 716.980469 282.480469 " fill-opacity="1" fill-rule="evenodd"/><path fill="#8c0505" d="M 826.105469 277.171875 C 823.207031 277.171875 820.792969 275.722656 819.34375 273.308594 L 786.027344 215.847656 L 777.820312 230.335938 L 796.652344 262.683594 C 798.582031 266.546875 797.132812 271.859375 793.269531 273.789062 C 789.890625 276.207031 784.578125 274.757812 782.648438 270.894531 L 761.402344 234.679688 C 759.953125 231.78125 759.953125 228.886719 761.402344 226.472656 L 779.269531 195.570312 C 782.164062 190.738281 790.375 190.738281 793.269531 195.570312 L 832.867188 265.097656 C 835.28125 268.960938 833.832031 273.789062 829.96875 276.207031 C 829.003906 276.6875 827.554688 277.171875 826.105469 277.171875 Z M 826.105469 277.171875 " fill-opacity="1" fill-rule="evenodd"/><path fill="#8c0505" d="M 612.683594 301.796875 C 610.269531 301.796875 608.339844 301.3125 606.40625 299.863281 L 587.574219 289.242188 C 581.296875 285.863281 579.367188 278.136719 582.746094 272.34375 L 618.960938 209.570312 C 615.582031 207.15625 613.648438 202.8125 614.132812 198.464844 C 614.617188 193.636719 617.511719 189.773438 621.859375 187.84375 L 654.210938 176.253906 C 657.589844 174.804688 661.453125 175.289062 664.832031 177.21875 C 668.210938 179.152344 670.144531 182.046875 670.625 185.910156 L 676.421875 219.226562 C 677.386719 224.058594 675.457031 228.886719 671.109375 231.78125 C 667.730469 234.195312 663.382812 234.679688 659.519531 233.230469 L 623.308594 295.519531 C 620.894531 299.382812 617.03125 301.796875 612.683594 301.796875 Z M 598.679688 277.171875 L 611.234375 284.414062 L 649.382812 218.261719 C 651.3125 214.398438 655.65625 212.953125 659.519531 214.398438 L 655.65625 192.671875 L 634.894531 200.398438 C 637.792969 202.8125 638.757812 207.15625 636.828125 211.019531 Z M 598.679688 277.171875 " fill-opacity="1" fill-rule="evenodd"/><path fill="#8c0505" d="M 612.683594 301.796875 C 607.855469 301.796875 604.476562 297.933594 604.476562 293.585938 C 604.476562 289.242188 607.855469 285.863281 612.683594 285.863281 L 678.835938 285.863281 L 670.144531 270.894531 L 632.964844 270.894531 C 628.136719 270.894531 624.753906 267.515625 624.753906 263.167969 C 624.753906 258.824219 628.136719 254.960938 632.964844 254.960938 L 674.972656 254.960938 C 677.871094 254.960938 680.285156 256.40625 681.730469 258.824219 L 699.597656 289.726562 C 701.046875 292.140625 701.046875 295.035156 699.597656 297.933594 C 698.148438 300.347656 695.253906 301.796875 692.355469 301.796875 Z M 612.683594 301.796875 " fill-opacity="1" fill-rule="evenodd"/></svg>